HIERARCHY
ROOT Hips
{
	OFFSET -0.001795 -0.223333 0.028219
	CHANNELS 6 Xposition Yposition Zposition Zrotation Yrotation Xrotation 
	JOINT LeftUpLeg
	{
		OFFSET 0.069520 -0.091406 -0.006815
		CHANNELS 3 Zrotation Yrotation Xrotation
		JOINT LeftLeg
		{
			OFFSET 0.034277 -0.375199 -0.004496
			CHANNELS 3 Zrotation Yrotation Xrotation
			JOINT LeftFoot
			{
				OFFSET -0.013596 -0.397961 -0.043693
				CHANNELS 3 Zrotation Yrotation Xrotation
				JOINT LeftToe
				{
					OFFSET 0.026358 -0.055791 0.119288
					CHANNELS 3 Zrotation Yrotation Xrotation
					End Site
					{
						OFFSET 0.000000 0.000000 0.000000
					}
				}
			}
		}
	}
	JOINT RightUpLeg
	{
		OFFSET -0.067670 -0.090522 -0.004320
		CHANNELS 3 Zrotation Yrotation Xrotation
		JOINT RightLeg
		{
			OFFSET -0.038290 -0.382569 -0.008850
			CHANNELS 3 Zrotation Yrotation Xrotation
			JOINT RightFoot
			{
				OFFSET 0.015774 -0.398415 -0.042312
				CHANNELS 3 Zrotation Yrotation Xrotation
				JOINT RightToe
				{
					OFFSET -0.025372 -0.048144 0.123348
					CHANNELS 3 Zrotation Yrotation Xrotation
					End Site
					{
						OFFSET 0.000000 0.000000 0.000000
					}
				}
			}
		}
	}
	JOINT Spine
	{
		OFFSET -0.002533 0.108963 -0.026696
		CHANNELS 3 Zrotation Yrotation Xrotation
		JOINT Spine1
		{
			OFFSET 0.005487 0.135180 0.001092
			CHANNELS 3 Zrotation Yrotation Xrotation
			JOINT Spine2
			{
				OFFSET 0.001457 0.052922 0.025425
				CHANNELS 3 Zrotation Yrotation Xrotation
				JOINT Neck
				{
					OFFSET -0.002778 0.213870 -0.042857
					CHANNELS 3 Zrotation Yrotation Xrotation
					JOINT Head
					{
						OFFSET 0.005152 0.064970 0.051349
						CHANNELS 3 Zrotation Yrotation Xrotation
						End Site
						{
							OFFSET 0.000000 0.000000 0.000000
						}
					}
				}
				JOINT LeftShoulder
				{
					OFFSET 0.078845 0.121749 -0.034090
					CHANNELS 3 Zrotation Yrotation Xrotation
					JOINT LeftArm
					{
						OFFSET 0.090977 0.030469 -0.008868
						CHANNELS 3 Zrotation Yrotation Xrotation
						JOINT LeftForeArm
						{
							OFFSET 0.259612 -0.012772 -0.027456
							CHANNELS 3 Zrotation Yrotation Xrotation
							JOINT LeftHand
							{
								OFFSET 0.249234 0.008986 -0.001171
								CHANNELS 3 Zrotation Yrotation Xrotation
								End Site
								{
									OFFSET 0.000000 0.000000 0.000000
								}
							}
						}
					}
				}
				JOINT RightShoulder
				{
					OFFSET -0.081759 0.118833 -0.038615
					CHANNELS 3 Zrotation Yrotation Xrotation
					JOINT RightArm
					{
						OFFSET -0.096012 0.032551 -0.009143
						CHANNELS 3 Zrotation Yrotation Xrotation
						JOINT RightForeArm
						{
							OFFSET -0.253742 -0.013329 -0.021401
							CHANNELS 3 Zrotation Yrotation Xrotation
							JOINT RightHand
							{
								OFFSET -0.255298 0.007772 -0.005559
								CHANNELS 3 Zrotation Yrotation Xrotation
								End Site
								{
									OFFSET 0.000000 0.000000 0.000000
								}
							}
						}
					}
				}
			}
		}
	}
}
MOTION
Frames: 18
Frame Time: 0.050000
0.000000 0.934494 0.000000 -1.672003 3.837064 1.488673 0.910251 -0.316261 -3.635938 -4.692577 0.486033 8.182830 7.159825 14.111528 -2.590706 0.000000 0.000000 0.000000 -2.862096 1.299339 -17.636053 7.008573 -2.356447 37.275404 -8.661599 -21.176168 1.473596 0.000000 0.000000 0.000000 -3.062777 -0.234406 13.836427 4.641837 -0.685405 -20.151781 -1.459688 -2.786737 31.545377 0.751700 1.014449 -26.791695 0.000000 0.000000 0.000000 -26.581983 -1.676896 -0.176201 -58.784855 -4.994794 -7.647680 0.818320 -53.413509 3.966138 0.000000 0.000000 0.000000 21.238964 5.879680 2.279754 65.235583 3.526301 -7.561178 -8.011415 44.006814 -0.047729 0.000000 0.000000 0.000000 
0.003292 0.935085 0.011379 -2.398974 3.738438 2.456277 1.785307 -0.249070 -2.793329 -5.441813 0.595413 5.607271 7.426076 14.796587 -1.880608 0.000000 0.000000 0.000000 -2.080966 1.698494 -21.651516 7.304133 -2.475667 37.304707 -9.562715 -22.941257 3.783892 0.000000 0.000000 0.000000 -3.408649 -0.183036 13.852518 5.886490 -1.039069 -20.070713 -1.748439 -4.160659 31.868780 0.001688 1.190552 -26.859042 0.000000 0.000000 0.000000 -26.676344 -0.852298 -0.129624 -58.987459 -6.782309 -6.960125 1.114720 -54.221882 4.318481 0.000000 0.000000 0.000000 21.045454 7.357456 2.676787 65.272120 2.213560 -8.274464 -8.012543 45.980141 -0.291916 0.000000 0.000000 0.000000 
0.005932 0.935458 0.023752 -2.566203 3.015191 2.879610 1.697734 -0.246821 -2.764164 -5.186019 0.570347 5.494514 7.484418 14.977419 -1.908475 0.000000 0.000000 0.000000 -1.457551 2.101904 -25.114762 7.035964 -2.117767 35.579789 -9.008040 -21.707611 4.873430 0.000000 0.000000 0.000000 -3.283462 -0.203442 14.725518 5.037286 -0.916841 -18.577850 -1.102509 -4.488115 30.890481 -0.535049 1.277000 -24.269387 0.000000 0.000000 0.000000 -25.876992 -1.288696 0.402554 -60.091012 -8.036194 -6.304438 3.934469 -53.969118 3.000900 0.000000 0.000000 0.000000 19.912446 7.282168 2.370133 66.426031 1.230093 -8.845961 -7.037025 46.604631 -0.072794 0.000000 0.000000 0.000000 
0.007904 0.936590 0.037572 -2.565650 2.828896 3.110474 1.457978 -0.208186 -2.261374 -5.162560 0.569344 5.421008 7.538386 15.002859 -2.518936 0.000000 0.000000 0.000000 -0.334957 2.513931 -27.185573 6.030893 -1.500875 32.241662 -8.482690 -20.627845 4.762858 0.000000 0.000000 0.000000 -3.236429 -0.244612 16.489615 5.701215 -1.041295 -19.502507 -1.788413 -5.672299 32.008480 -1.148242 1.425442 -24.896722 0.000000 0.000000 0.000000 -26.586377 -1.174723 0.865417 -60.300873 -8.529775 -6.313060 4.066449 -55.840066 3.513878 0.000000 0.000000 0.000000 20.752995 8.202615 2.515589 65.946145 0.326094 -9.419921 -8.245653 48.445443 -0.739962 0.000000 0.000000 0.000000 
0.009433 0.937316 0.053180 -2.374097 2.778633 4.208770 0.795141 -0.218439 -2.410147 -4.367701 0.451372 5.260325 7.531893 15.106456 -1.861988 0.000000 0.000000 0.000000 1.097954 2.984744 -28.802341 5.434485 -1.068391 26.237775 -7.891864 -19.425762 4.433637 0.000000 0.000000 0.000000 -2.953380 -0.318612 18.000928 6.670123 -1.379812 -18.633508 -2.370511 -5.863165 30.606085 -1.445964 1.609281 -25.447446 0.000000 0.000000 0.000000 -25.751070 -1.454343 1.047557 -61.554066 -8.035583 -6.394992 3.593595 -58.172829 3.947535 0.000000 0.000000 0.000000 20.735748 8.287795 2.423513 66.735712 -0.626586 -9.879193 -10.627394 49.806519 -1.944293 0.000000 0.000000 0.000000 
0.010449 0.935816 0.070965 -1.765163 3.454337 5.262673 0.054043 -0.279360 -3.155012 -3.973440 0.373531 7.226786 7.079001 13.981394 -2.695537 0.000000 0.000000 0.000000 1.771130 3.170617 -29.670557 4.666142 -0.751137 21.367882 -7.333003 -18.221799 3.985352 0.000000 0.000000 0.000000 -1.964342 -0.587708 20.098313 5.954758 -1.038569 -20.025593 -2.660334 -6.813420 30.806965 -2.159189 1.933595 -26.183268 0.000000 0.000000 0.000000 -26.667985 -1.998539 1.613959 -60.762891 -8.208447 -6.389890 2.012932 -60.011227 5.123584 0.000000 0.000000 0.000000 21.155684 8.063994 2.131228 67.561791 -1.958320 -10.816813 -12.027340 52.184344 -2.749269 0.000000 0.000000 0.000000 
0.011027 0.931541 0.091608 -1.196424 4.447671 5.544930 -0.393544 -0.347159 -3.915103 -4.174961 0.359068 11.121783 7.182272 13.962766 -3.448657 0.000000 0.000000 0.000000 2.425807 3.213439 -29.382208 3.601824 -0.471143 20.237994 -6.849797 -17.126789 4.214120 0.000000 0.000000 0.000000 -0.787062 -0.961896 22.001350 6.191107 -1.142679 -19.202973 -3.259041 -7.265212 29.653750 -2.154218 1.934324 -25.507700 0.000000 0.000000 0.000000 -27.137808 -2.819762 2.055725 -60.667492 -9.005789 -5.853702 0.540107 -59.764587 5.768512 0.000000 0.000000 0.000000 21.191364 8.361128 2.289417 68.839183 -2.400304 -11.157344 -13.945739 53.711612 -3.791479 0.000000 0.000000 0.000000 
0.010990 0.925232 0.114415 -1.366638 5.256654 6.275799 0.762724 -0.631389 -7.227066 -5.699994 0.616998 19.427101 7.529064 14.489522 -4.528996 0.000000 0.000000 0.000000 2.833663 3.467105 -31.601203 4.164330 -0.745588 23.275868 -8.099313 -19.684169 6.398598 0.000000 0.000000 0.000000 0.323518 -1.359803 23.565437 6.716663 -1.251823 -19.394084 -2.837178 -7.360498 29.072193 -3.010896 2.480222 -25.142118 0.000000 0.000000 0.000000 -28.961940 -2.501939 1.738604 -59.849831 -8.377777 -6.156036 -3.188500 -61.797024 8.164504 0.000000 0.000000 0.000000 21.205744 8.907453 2.699993 66.970122 -1.650130 -10.364127 -14.373899 53.349479 -3.994363 0.000000 0.000000 0.000000 
0.010072 0.914874 0.138805 -1.370576 5.813584 6.538568 2.432633 -1.089108 -13.593065 -8.136484 1.363082 33.086282 8.000626 15.810644 -3.763045 0.000000 0.000000 0.000000 2.889015 3.609227 -33.465534 5.173691 -1.301854 28.166778 -8.700327 -21.021720 4.320881 0.000000 0.000000 0.000000 0.843153 -1.642793 25.149585 7.557990 -1.552009 -18.523987 -1.960195 -5.450978 27.940553 -3.449299 3.105054 -24.991877 0.000000 0.000000 0.000000 -31.361035 -4.305479 2.028320 -58.380473 -8.249175 -5.897207 -3.767491 -62.744754 7.980229 0.000000 0.000000 0.000000 20.593639 9.219485 3.520750 65.844619 -1.502419 -10.009017 -13.323418 53.402416 -3.182864 0.000000 0.000000 0.000000 
0.008722 0.902876 0.164383 -1.558845 5.729731 5.705677 4.323768 -1.464300 -21.141550 -10.753589 2.932791 49.274126 10.166289 20.752284 -0.322629 0.000000 0.000000 0.000000 3.149391 3.761858 -34.139776 6.114444 -1.917996 33.265014 -8.901938 -21.680449 1.463538 0.000000 0.000000 0.000000 0.958863 -1.932168 28.335892 8.891560 -1.915654 -18.866707 -1.447232 -3.096536 27.625864 -2.552274 2.950285 -25.314080 0.000000 0.000000 0.000000 -33.538756 -5.649966 1.923838 -57.748683 -7.127742 -6.114333 -5.739100 -63.728878 8.759743 0.000000 0.000000 0.000000 20.251998 9.872617 4.512257 64.468306 0.580367 -8.665332 -15.369639 52.433269 -3.717189 0.000000 0.000000 0.000000 
0.007741 0.891529 0.190950 -1.482101 5.683090 5.395760 5.075133 -1.992915 -29.808164 -11.341766 3.893239 62.008300 11.877775 24.062499 1.713112 0.000000 0.000000 0.000000 2.876938 3.768987 -34.942970 6.859816 -2.481240 37.121126 -8.934251 -21.953838 -0.893383 0.000000 0.000000 0.000000 0.852068 -2.109828 30.821388 7.837386 -1.625083 -18.728695 -0.172400 -2.019916 27.098072 -2.245550 2.890803 -23.832268 0.000000 0.000000 0.000000 -34.803305 -7.174083 2.498926 -57.734341 -6.880288 -6.028554 -5.032763 -62.111356 7.732855 0.000000 0.000000 0.000000 20.603126 11.186088 5.524504 63.306297 2.866810 -7.275940 -17.051952 50.956570 -4.268608 0.000000 0.000000 0.000000 
0.007800 0.884700 0.217909 -1.374502 4.603974 5.050534 4.868247 -2.582814 -37.699240 -10.177691 3.858297 68.584084 12.677257 25.426426 2.776280 0.000000 0.000000 0.000000 3.155946 4.024947 -35.481415 7.179709 -2.718494 41.267012 -9.245022 -22.848059 -2.455333 0.000000 0.000000 0.000000 -0.641980 -1.739088 33.498455 8.395539 -1.729406 -19.534286 0.796854 0.861796 26.926325 -1.191032 2.651165 -24.041774 0.000000 0.000000 0.000000 -35.416091 -7.808766 1.774594 -57.853105 -4.171029 -6.962229 -9.168572 -60.632503 9.337731 0.000000 0.000000 0.000000 21.839372 11.426570 6.420030 61.460314 6.209299 -5.457009 -19.134101 48.416161 -4.601942 0.000000 0.000000 0.000000 
0.008775 0.879963 0.245402 -1.287335 3.782143 4.903731 4.389082 -3.122306 -43.494801 -8.270424 2.699605 68.688426 11.703122 23.800387 1.215874 0.000000 0.000000 0.000000 3.785730 4.288543 -35.383146 6.558569 -2.394442 44.148897 -9.263673 -23.018019 -3.762012 0.000000 0.000000 0.000000 -1.791765 -1.379740 35.477723 7.734515 -1.598534 -19.090507 2.258543 2.637260 25.957844 -1.521690 3.023564 -22.882713 0.000000 0.000000 0.000000 -36.610216 -7.882508 1.027514 -58.191356 -1.819819 -7.801485 -12.249665 -58.885966 10.398210 0.000000 0.000000 0.000000 23.518453 12.300432 7.477345 60.262823 8.715637 -4.133516 -21.583086 47.447025 -5.396391 0.000000 0.000000 0.000000 
0.010208 0.875743 0.273280 -1.064264 2.836567 4.578282 3.328396 -3.787771 -48.118381 -6.246327 1.369109 64.250234 10.825503 22.170452 1.583493 0.000000 0.000000 0.000000 4.046252 4.418340 -34.961744 6.804768 -2.486918 47.326353 -9.498996 -23.694334 -4.746929 0.000000 0.000000 0.000000 -3.362106 -0.790272 37.484855 7.846582 -1.578842 -19.827269 3.209081 4.850270 26.289193 -0.922072 2.992537 -23.640879 0.000000 0.000000 0.000000 -36.652637 -8.092492 0.272397 -58.781097 1.350525 -9.167497 -15.908171 -57.574323 11.785179 0.000000 0.000000 0.000000 23.980856 12.443087 8.162814 59.801099 11.224214 -2.959798 -23.236953 46.454143 -5.691826 0.000000 0.000000 0.000000 
0.011967 0.871078 0.301512 -1.146977 1.751405 4.223787 2.732820 -4.022850 -50.410353 -4.308298 0.284141 56.274321 9.019160 18.764219 1.654020 0.000000 0.000000 0.000000 4.547494 4.510698 -33.722463 6.723937 -2.261933 49.194760 -9.908257 -24.898888 -6.069161 0.000000 0.000000 0.000000 -3.764892 -0.530548 38.797273 6.534341 -1.291916 -19.243833 4.141044 6.309851 25.052252 -0.544814 2.856999 -22.540772 0.000000 0.000000 0.000000 -37.308750 -7.514582 -0.778416 -57.684089 5.360626 -10.560392 -21.839001 -57.206519 14.676696 0.000000 0.000000 0.000000 25.082961 12.425063 8.539363 58.570156 12.228869 -2.433918 -22.273572 46.401755 -5.316023 0.000000 0.000000 0.000000 
0.013780 0.863063 0.330090 -1.170608 0.783322 3.864201 2.570119 -3.896458 -50.744970 -3.631071 0.148721 46.726297 6.926423 14.712603 1.643806 0.000000 0.000000 0.000000 4.322493 4.557535 -33.785080 7.830494 -2.839569 52.664643 -11.055142 -27.724187 -5.495478 0.000000 0.000000 0.000000 -4.638500 -0.072812 39.895480 6.458736 -1.175229 -20.626394 4.354057 7.105120 26.094301 -0.357296 2.856407 -22.922604 0.000000 0.000000 0.000000 -38.087911 -7.500096 -1.028198 -57.017297 7.519016 -11.436887 -25.603181 -57.450055 16.880253 0.000000 0.000000 0.000000 25.365033 12.604648 8.822704 58.627853 12.914903 -2.228501 -21.102225 46.971989 -4.859486 0.000000 0.000000 0.000000 
0.015622 0.853093 0.358603 -1.433609 0.133703 3.328838 2.335650 -3.685570 -48.807468 -3.567987 0.260157 38.492147 5.467386 11.594675 0.515360 0.000000 0.000000 0.000000 4.845237 4.551798 -32.317119 8.824742 -3.428398 55.295490 -11.324658 -28.870987 -7.622905 0.000000 0.000000 0.000000 -5.390112 0.305707 40.232204 5.522043 -1.039591 -19.398928 4.650820 7.388049 25.115825 0.413830 2.320445 -22.129708 0.000000 0.000000 0.000000 -36.405367 -7.910218 -0.518847 -58.750556 8.581525 -12.356989 -25.569980 -59.863233 17.660440 0.000000 0.000000 0.000000 26.051500 13.147586 9.207903 59.587371 12.661514 -2.226839 -23.203294 47.699017 -5.817121 0.000000 0.000000 0.000000 
0.017889 0.840384 0.385102 -1.802940 -0.493066 3.087713 1.679708 -3.715994 -47.478698 -1.555086 -0.582059 36.833424 4.805411 9.756446 -1.452779 0.000000 0.000000 0.000000 4.782423 4.550569 -32.017376 10.263366 -4.408280 58.446297 -11.957790 -30.942267 -9.006799 0.000000 0.000000 0.000000 -6.155768 0.705614 41.145072 5.861272 -0.996609 -21.358125 4.518565 7.324650 26.979813 0.305580 2.412232 -22.847614 0.000000 0.000000 0.000000 -36.362827 -8.317398 0.073087 -59.399957 7.408985 -12.251865 -22.628028 -61.403026 16.694712 0.000000 0.000000 0.000000 27.485851 13.974182 9.912580 59.902002 12.421131 -2.616087 -23.477790 48.160438 -5.967386 0.000000 0.000000 0.000000 
